<?xml version="1.0" encoding="UTF-8" standalone="no"?>
<svg
   version="1.1"
   x="0px"
   y="0px"
   viewBox="0 0 169.36415 130.05782"
   xml:space="preserve"
   width="169.36415"
   height="130.05782"
   xmlns="http://www.w3.org/2000/svg"
   xmlns:svg="http://www.w3.org/2000/svg">
   <path fill="#2979ff" d="m 152.18803,55.982768 c 0.18702,9.85157 -6.98218,18.5309 -16.69103,20.2212 -8.85039,1.53269 -17.16804,-2.8689 -21.19374,-10.13913 l -0.0249,-0.0477 c 0,0 -0.001,-0.01 -0.012,-0.0189 l -7.10772,-13.06833 c -3.46105,-6.36267 -9.502296,-10.91519 -16.568626,-12.49885 l -0.01,10e-4 c -4.97798,-1.11239 -10.17923,0.62238 -13.49241,4.51733 -1.32884,1.56236 -2.38854,2.80587 -2.38854,2.80587 -2.67658,3.1367 -4.26137,7.02687 -4.57427,11.06922 -0.1102,1.38825 -0.0671,2.80114 0.12518,4.19886 l 2.12784,15.10225 1.00047,7.0751 -0.011,-0.009 c 0.0212,0.20893 0.0514,0.40689 0.0726,0.61581 1.92608,18.952382 -12.54549,35.791852 -31.9109,36.423072 -16.350621,0.52585 -30.829561,-11.29078 -33.6028313,-27.402952 -0.49016,-2.84502 -0.60413,-5.64786 -0.37867,-8.37463 1.25845,-15.60722 13.5004103,-28.5714 29.6373003,-30.21135 0.7362,-0.0748 14.345491,-2.453 19.379601,-6.03032 l 3.47866,-2.46434 c 3.38423,-2.40449 5.85629,-5.8722 7.02005,-9.85025 l 3.4378,-11.76789 0.011,0.009 c 0.69066,-4.87481 4.61965,-8.84239 9.74326,-9.36309 3.47907,-0.35357 6.73676,0.9618 8.98929,3.28596 1.85156,1.90958 15.026966,12.77815 15.026966,12.77815 3.13855,2.59598 7.11591,3.95078 11.19337,3.81784 l 16.06808,-0.53734 c 8.38288,-0.19859 15.86868,4.82027 19.03895,12.27795 0.77806,1.82066 1.29965,3.788 1.51096,5.86729 0.0586,0.56698 0.0964,1.13608 0.10526,1.71817 z"/>
   <path fill="#cccccc" d="m 114.5215,29.154628 c -3.31094,0.33649 -6.2679,-2.0749 -6.60429,-5.38485 -0.33648,-3.31095 2.07491,-6.26791 5.38585,-6.60439 3.31095,-0.33648 6.26691,2.075 6.6034,5.38595 0.33638,3.30995 -2.07501,6.26691 -5.38496,6.60329 z"/>
   <path fill="#cccccc" d="m 49.772174,43.243438 c -4.68188,0.47581 -8.86305,-2.93392 -9.33886,-7.61581 -0.47581,-4.68188 2.93392,-8.86305 7.6158,-9.33886 4.68188,-0.47581 8.86306,2.93392 9.33887,7.6158 0.47581,4.68188 -2.93392,8.86306 -7.61581,9.33887 z"/>
   <path fill="#b3b3b3" d="m 89.045014,50.014378 c 7.19693,-0.73141 13.623776,4.50965 14.355176,11.70658 0.73141,7.19693 -4.509646,13.62377 -11.706576,14.35518 -7.19693,0.73141 -13.62377,-4.50965 -14.35518,-11.70658 -0.7314,-7.19693 4.50965,-13.62377 11.70658,-14.35518 z"/>
</svg>
